# Blender v2.79 (sub 0) OBJ File: 'front_left_wheel.blend'
# www.blender.org
mtllib front_left_wheel.mtl
o objcadWhe3
v -0.669852 0.822663 0.291476
v -0.465754 0.840869 0.188225
v -0.465754 0.822663 0.291476
v -0.669852 0.840869 0.188225
v -0.465754 0.893291 0.097428
v -0.669852 0.893291 0.097428
v -0.465754 0.973605 0.030034
v -0.669852 0.973607 0.030034
v -0.465754 1.072127 -0.005824
v -0.669852 1.072127 -0.005824
v -0.465754 1.176971 -0.005824
v -0.669852 1.176971 -0.005824
v -0.465754 1.275491 0.030034
v -0.669852 1.275491 0.030034
v -0.465754 1.355807 0.097428
v -0.669852 1.355807 0.097428
v -0.465754 1.408229 0.188225
v -0.669852 1.408229 0.188225
v -0.465754 1.426435 0.291476
v -0.669852 1.426435 0.291476
v -0.465754 1.408229 0.394725
v -0.669852 1.408229 0.394725
v -0.465754 1.355807 0.485524
v -0.669852 1.355807 0.485524
v -0.465754 1.275491 0.552916
v -0.669852 1.275491 0.552916
v -0.465754 1.176971 0.588774
v -0.669852 1.176971 0.588774
v -0.465754 1.072127 0.588774
v -0.669852 1.072127 0.588774
v -0.465754 0.973607 0.552916
v -0.669852 0.973607 0.552916
v -0.465754 0.893291 0.485524
v -0.669852 0.893291 0.485524
v -0.465754 0.840869 0.394727
v -0.669852 0.840869 0.394727
vt 0.258900 0.329200
vt 0.253900 0.300300
vt 0.258900 0.329200
vt 0.253900 0.300300
vt 0.239200 0.274900
vt 0.239200 0.274900
vt 0.216700 0.256100
vt 0.216700 0.256100
vt 0.189200 0.246100
vt 0.189200 0.246100
vt 0.159800 0.246100
vt 0.159800 0.246100
vt 0.132300 0.256100
vt 0.132300 0.256100
vt 0.109800 0.274900
vt 0.109800 0.274900
vt 0.095200 0.300300
vt 0.095200 0.300300
vt 0.090100 0.329200
vt 0.090100 0.329200
vt 0.095200 0.358100
vt 0.095200 0.358100
vt 0.109800 0.383500
vt 0.109800 0.383500
vt 0.132300 0.402300
vt 0.132300 0.402300
vt 0.159800 0.412400
vt 0.159800 0.412400
vt 0.189200 0.412400
vt 0.189200 0.412400
vt 0.216700 0.402300
vt 0.216700 0.402300
vt 0.239200 0.383500
vt 0.239200 0.383500
vt 0.253900 0.358100
vt 0.253900 0.358100
vn 0.0000 -0.9848 -0.1736
vn 0.0000 -0.8660 -0.5000
vn 0.0000 -0.6428 -0.7660
vn -0.0000 -0.3420 -0.9397
vn 0.0000 0.0000 -1.0000
vn 0.0000 0.3420 -0.9397
vn 0.0000 0.6428 -0.7660
vn 0.0000 0.8660 -0.5000
vn 0.0000 0.9848 -0.1736
vn 0.0000 0.9848 0.1736
vn 0.0000 0.8660 0.5000
vn 0.0000 0.6428 0.7661
vn 0.0000 0.3420 0.9397
vn 0.0000 0.0000 1.0000
vn 0.0000 -0.3420 0.9397
vn 0.0000 -0.6428 0.7661
vn 0.0000 -0.8660 0.5000
vn 0.0000 -0.9848 0.1736
vn -1.0000 0.0000 0.0000
vn 1.0000 0.0000 0.0000
usemtl _1_-_Default
s off
f 1/1/1 2/2/1 3/3/1
f 1/1/1 4/4/1 2/2/1
f 4/4/2 5/5/2 2/2/2
f 4/4/2 6/6/2 5/5/2
f 6/6/3 7/7/3 5/5/3
f 6/6/3 8/8/3 7/7/3
f 8/8/4 9/9/4 7/7/4
f 8/8/4 10/10/4 9/9/4
f 10/10/5 11/11/5 9/9/5
f 10/10/5 12/12/5 11/11/5
f 12/12/6 13/13/6 11/11/6
f 12/12/6 14/14/6 13/13/6
f 14/14/7 15/15/7 13/13/7
f 14/14/7 16/16/7 15/15/7
f 16/16/8 17/17/8 15/15/8
f 16/16/8 18/18/8 17/17/8
f 18/18/9 19/19/9 17/17/9
f 18/18/9 20/20/9 19/19/9
f 20/20/10 21/21/10 19/19/10
f 20/20/10 22/22/10 21/21/10
f 22/22/11 23/23/11 21/21/11
f 22/22/11 24/24/11 23/23/11
f 24/24/12 25/25/12 23/23/12
f 24/24/12 26/26/12 25/25/12
f 26/26/13 27/27/13 25/25/13
f 26/26/13 28/28/13 27/27/13
f 28/28/14 29/29/14 27/27/14
f 28/28/14 30/30/14 29/29/14
f 30/30/15 31/31/15 29/29/15
f 30/30/15 32/32/15 31/31/15
f 32/32/16 33/33/16 31/31/16
f 32/32/16 34/34/16 33/33/16
f 34/34/17 35/35/17 33/33/17
f 34/34/17 36/36/17 35/35/17
f 36/36/18 3/3/18 35/35/18
f 36/36/18 1/1/18 3/3/18
f 22/22/19 1/1/19 36/36/19
f 1/1/19 22/22/19 20/20/19
f 19/19/20 35/35/20 3/3/20
f 19/19/20 21/21/20 35/35/20
f 12/12/19 8/8/19 14/14/19
f 12/12/19 10/10/19 8/8/19
f 9/9/20 13/13/20 7/7/20
f 9/9/20 11/11/20 13/13/20
f 14/14/19 6/6/19 16/16/19
f 14/14/19 8/8/19 6/6/19
f 7/7/20 15/15/20 5/5/20
f 7/7/20 13/13/20 15/15/20
f 16/16/19 4/4/19 18/18/19
f 16/16/19 6/6/19 4/4/19
f 5/5/20 17/17/20 2/2/20
f 5/5/20 15/15/20 17/17/20
f 18/18/19 1/1/19 20/20/19
f 1/1/19 18/18/19 4/4/19
f 2/2/20 19/19/20 3/3/20
f 2/2/20 17/17/20 19/19/20
f 34/34/19 22/22/19 36/36/19
f 34/34/19 24/24/19 22/22/19
f 23/23/20 35/35/20 21/21/20
f 23/23/20 33/33/20 35/35/20
f 32/32/19 24/24/19 34/34/19
f 32/32/19 26/26/19 24/24/19
f 25/25/20 33/33/20 23/23/20
f 25/25/20 31/31/20 33/33/20
f 30/30/19 26/26/19 32/32/19
f 30/30/19 28/28/19 26/26/19
f 27/27/20 31/31/20 25/25/20
f 27/27/20 29/29/20 31/31/20
